tugOfWar_states
version=1
nRows=15
nColumns=19
inDegrees=yes

# SIMM Motion File Header:
name tugOfWar_states
datacolumns 19
datarows 15
otherdata 1
range 0.00000000 0.01987017
endheader
time	blockToGround_xRotation	blockToGround_yRotation	blockToGround_zRotation	blockToGround_xTranslation	blockToGround_yTranslation	blockToGround_zTranslation	blockToGround_xRotation_u	blockToGround_yRotation_u	blockToGround_zRotation_u	blockToGround_xTranslation_u	blockToGround_yTranslation_u	blockToGround_zTranslation_u	Liu.activation	Liu.active_motor_units	Liu.fatigued_motor_units	Liu.fiber_length	Thelen.activation	Thelen.fiber_length
      0.00000000	      0.00000000	      0.00000000	      0.00000000	      0.00000000	      0.00000000	      0.00000000	      0.00000000	      0.00000000	      0.00000000	      0.00000000	      0.00000000	      0.00000000	      0.00000000	      0.00000000	      0.00000000	      0.10000000	      0.00000000	      0.10000000
      0.00092065	      0.00000000	      0.00000000	      0.00000000	      0.00000000	     -0.00000414	     -0.00000004	      0.00000000	      0.00000000	      0.00000000	      0.00000000	     -0.00896485	     -0.00009218	      0.00056490	      0.00000635	      0.00056490	      0.10000000	      0.00056490	      0.10000330
      0.00184130	      0.00000000	      0.00000000	      0.00000000	      0.00000000	     -0.00001639	     -0.00000017	      0.00000000	      0.00000000	      0.00000000	      0.00000000	     -0.01755104	     -0.00018589	      0.00056464	      0.00001263	      0.00056464	      0.10000000	      0.00056464	      0.10000337
      0.00402473	      0.00000000	      0.00000000	      0.00000000	      0.00000000	     -0.00007420	     -0.00000084	      0.00000000	      0.00000000	      0.00000000	      0.00000000	     -0.03435029	     -0.00044301	      0.00088540	      0.00002727	      0.00088540	      0.10000000	      0.00088540	      0.09999945
      0.00533562	      0.00000000	      0.00000000	      0.00000000	      0.00000000	     -0.00012379	     -0.00000155	      0.00000000	      0.00000000	      0.00000000	      0.00000000	     -0.04076057	     -0.00065632	      0.00132776	      0.00003589	      0.00132776	      0.10000000	      0.00132776	      0.09999250
      0.00664652	      0.00000000	      0.00000000	      0.00000000	      0.00000000	     -0.00017954	     -0.00000260	      0.00000000	      0.00000000	      0.00000000	      0.00000000	     -0.04369186	     -0.00096216	      0.00133133	      0.00004437	      0.00133133	      0.10000000	      0.00133133	      0.09998542
      0.00753681	      0.00000000	      0.00000000	      0.00000000	      0.00000000	     -0.00021851	     -0.00000359	      0.00000000	      0.00000000	      0.00000000	      0.00000000	     -0.04355865	     -0.00126856	      0.00184758	      0.00005006	      0.00184758	      0.10000000	      0.00184758	      0.09997938
      0.00842710	      0.00000000	      0.00000000	      0.00000000	      0.00000000	     -0.00025659	     -0.00000490	      0.00000000	      0.00000000	      0.00000000	      0.00000000	     -0.04170418	     -0.00169798	      0.00184736	      0.00005570	      0.00184736	      0.10000000	      0.00184736	      0.09997274
      0.01028733	      0.00000000	      0.00000000	      0.00000000	      0.00000000	     -0.00032678	     -0.00000933	      0.00000000	      0.00000000	      0.00000000	      0.00000000	     -0.03267567	     -0.00323454	      0.00214658	      0.00006728	      0.00214658	      0.10000000	      0.00214658	      0.09996088
      0.01171097	      0.00000000	      0.00000000	      0.00000000	      0.00000000	     -0.00036595	     -0.00001518	      0.00000000	      0.00000000	      0.00000000	      0.00000000	     -0.02188327	     -0.00505921	      0.00265185	      0.00007597	      0.00265185	      0.10000000	      0.00265185	      0.09995109
      0.01313461	      0.00000000	      0.00000000	      0.00000000	      0.00000000	     -0.00038804	     -0.00002376	      0.00000000	      0.00000000	      0.00000000	      0.00000000	     -0.00889449	     -0.00693439	      0.00265161	      0.00008452	      0.00265161	      0.10000000	      0.00265161	      0.09994376
      0.01421243	      0.00000000	      0.00000000	      0.00000000	      0.00000000	     -0.00039199	     -0.00003185	      0.00000000	      0.00000000	      0.00000000	      0.00000000	      0.00160621	     -0.00801708	      0.00324851	      0.00009090	      0.00324851	      0.10000000	      0.00324851	      0.09993829
      0.01529024	      0.00000000	      0.00000000	      0.00000000	      0.00000000	     -0.00038462	     -0.00004090	      0.00000000	      0.00000000	      0.00000000	      0.00000000	      0.01201191	     -0.00873486	      0.00324819	      0.00009720	      0.00324819	      0.10000000	      0.00324819	      0.09993354
      0.01758020	      0.00000000	      0.00000000	      0.00000000	      0.00000000	     -0.00033413	     -0.00006187	      0.00000000	      0.00000000	      0.00000000	      0.00000000	      0.03111214	     -0.00943503	      0.00384207	      0.00011032	      0.00384207	      0.10000000	      0.00384207	      0.09992662
      0.01987017	      0.00000000	      0.00000000	      0.00000000	      0.00000000	     -0.00024828	     -0.00008370	      0.00000000	      0.00000000	      0.00000000	      0.00000000	      0.04222964	     -0.00958463	      0.00434629	      0.00012308	      0.00434629	      0.10000000	      0.00434629	      0.09992784
